<svg xmlns="http://www.w3.org/2000/svg" width="1200" height="630" viewBox="0 0 1200 630">
  <defs>
    <linearGradient id="bg" x1="0%" y1="0%" x2="100%" y2="100%">
      <stop offset="0%" stop-color="#07090f"/>
      <stop offset="100%" stop-color="#0c1120"/>
    </linearGradient>
    <linearGradient id="g1" x1="0%" y1="0%" x2="100%" y2="100%">
      <stop offset="0%" stop-color="#4f7fff"/>
      <stop offset="100%" stop-color="#a855f7"/>
    </linearGradient>
    <radialGradient id="orb1" cx="20%" cy="30%" r="40%">
      <stop offset="0%" stop-color="#4f7fff" stop-opacity="0.25"/>
      <stop offset="100%" stop-color="#4f7fff" stop-opacity="0"/>
    </radialGradient>
    <radialGradient id="orb2" cx="85%" cy="70%" r="40%">
      <stop offset="0%" stop-color="#a855f7" stop-opacity="0.2"/>
      <stop offset="100%" stop-color="#a855f7" stop-opacity="0"/>
    </radialGradient>
  </defs>
  <rect width="1200" height="630" fill="url(#bg)"/>
  <rect width="1200" height="630" fill="url(#orb1)"/>
  <rect width="1200" height="630" fill="url(#orb2)"/>
  <rect x="1" y="1" width="1198" height="628" fill="none" stroke="rgba(255,255,255,0.06)" stroke-width="2"/>
  <g transform="translate(100, 185)">
    <polygon points="100,6 117,43 151,17 137,55 174,42 151,73 190,78 155,95 192,116 154,115 176,148 137,130 143,168 112,146 100,180 88,146 57,168 63,130 24,148 46,115 8,116 45,95 10,78 49,73 26,42 63,55 49,17 83,43" fill="url(#g1)" opacity="0.15"/>
    <polygon points="100,6 117,43 151,17 137,55 174,42 151,73 190,78 155,95 192,116 154,115 176,148 137,130 143,168 112,146 100,180 88,146 57,168 63,130 24,148 46,115 8,116 45,95 10,78 49,73 26,42 63,55 49,17 83,43" fill="none" stroke="url(#g1)" stroke-width="2" opacity="0.6"/>
    <ellipse cx="77" cy="90" rx="14" ry="16" fill="white" opacity="0.9"/>
    <ellipse cx="123" cy="90" rx="14" ry="16" fill="white" opacity="0.9"/>
    <ellipse cx="77" cy="91" rx="8" ry="9" fill="#07090f"/>
    <ellipse cx="123" cy="91" rx="8" ry="9" fill="#07090f"/>
  </g>
  <text x="340" y="288" font-family="system-ui,-apple-system,sans-serif" font-size="96" font-weight="900" letter-spacing="-3" fill="url(#g1)">SIMBAI</text>
  <text x="340" y="348" font-family="system-ui,-apple-system,sans-serif" font-size="26" font-weight="400" fill="#6b7a9c" letter-spacing="1">Servicios digitales para empresas reales</text>
  <g transform="translate(340, 415)">
    <rect x="0" y="0" width="148" height="36" rx="18" fill="rgba(79,127,255,0.12)" stroke="rgba(79,127,255,0.3)" stroke-width="1"/>
    <text x="74" y="24" font-family="system-ui,sans-serif" font-size="14" fill="#4f7fff" text-anchor="middle">Webs Premium</text>
    <rect x="164" y="0" width="174" height="36" rx="18" fill="rgba(168,85,247,0.12)" stroke="rgba(168,85,247,0.3)" stroke-width="1"/>
    <text x="251" y="24" font-family="system-ui,sans-serif" font-size="14" fill="#a855f7" text-anchor="middle">Automatizaciones n8n</text>
    <rect x="354" y="0" width="152" height="36" rx="18" fill="rgba(16,185,129,0.12)" stroke="rgba(16,185,129,0.3)" stroke-width="1"/>
    <text x="430" y="24" font-family="system-ui,sans-serif" font-size="14" fill="#10b981" text-anchor="middle">Marketing Digital</text>
    <rect x="522" y="0" width="120" height="36" rx="18" fill="rgba(236,72,153,0.12)" stroke="rgba(236,72,153,0.3)" stroke-width="1"/>
    <text x="582" y="24" font-family="system-ui,sans-serif" font-size="14" fill="#ec4899" text-anchor="middle">IA Aplicada</text>
  </g>
  <text x="600" y="590" font-family="system-ui,sans-serif" font-size="20" fill="rgba(107,122,156,0.6)" text-anchor="middle" letter-spacing="2">simbai.es</text>
</svg>
